<svg width="500" height="500" viewBox="0 0 500 500" fill="none" xmlns="http://www.w3.org/2000/svg">
<g clip-path="url(#clip0_4003_6)">
<rect width="500" height="500" rx="250" fill="black"/>
<path d="M500 250C500 388.071 388.071 500 250 500C111.929 500 0 388.071 0 250C0 111.929 111.929 0 250 0C388.071 0 500 111.929 500 250ZM14.4473 250C14.4473 380.092 119.908 485.553 250 485.553C380.092 485.553 485.553 380.092 485.553 250C485.553 119.908 380.092 14.4473 250 14.4473C119.908 14.4473 14.4473 119.908 14.4473 250Z" fill="url(#paint0_linear_4003_6)"/>
<path d="M151.016 215V170.2H157.864L177.448 202.904H173.864L193.128 170.2H199.976L200.04 215H192.168L192.104 182.552H193.768L177.384 209.88H173.672L157.032 182.552H158.952V215H151.016ZM212.141 215V170.2H220.461V215H212.141ZM246.467 215.64C242.968 215.64 239.619 215.149 236.419 214.168C233.219 213.144 230.68 211.843 228.803 210.264L231.683 203.8C233.475 205.208 235.693 206.381 238.339 207.32C240.984 208.259 243.693 208.728 246.467 208.728C248.813 208.728 250.712 208.472 252.163 207.96C253.613 207.448 254.68 206.765 255.363 205.912C256.045 205.016 256.387 204.013 256.387 202.904C256.387 201.539 255.896 200.451 254.915 199.64C253.933 198.787 252.653 198.125 251.075 197.656C249.539 197.144 247.811 196.675 245.891 196.248C244.013 195.821 242.115 195.331 240.195 194.776C238.317 194.179 236.589 193.432 235.01 192.536C233.475 191.597 232.216 190.36 231.235 188.824C230.253 187.288 229.763 185.325 229.763 182.936C229.763 180.504 230.403 178.285 231.683 176.28C233.005 174.232 234.989 172.611 237.635 171.416C240.323 170.179 243.715 169.56 247.811 169.56C250.499 169.56 253.165 169.901 255.811 170.584C258.456 171.267 260.76 172.248 262.722 173.528L260.099 179.992C258.093 178.797 256.024 177.923 253.891 177.368C251.757 176.771 249.709 176.472 247.747 176.472C245.443 176.472 243.565 176.749 242.115 177.304C240.707 177.859 239.661 178.584 238.979 179.48C238.339 180.376 238.019 181.4 238.019 182.552C238.019 183.917 238.488 185.027 239.427 185.88C240.408 186.691 241.667 187.331 243.203 187.8C244.781 188.269 246.531 188.739 248.451 189.208C250.371 189.635 252.269 190.125 254.147 190.68C256.067 191.235 257.795 191.96 259.331 192.856C260.909 193.752 262.168 194.968 263.107 196.504C264.088 198.04 264.579 199.981 264.579 202.328C264.579 204.717 263.917 206.936 262.595 208.984C261.315 210.989 259.331 212.611 256.643 213.848C253.955 215.043 250.563 215.64 246.467 215.64ZM281.292 215V177.24H266.444V170.2H304.46V177.24H289.612V215H281.292ZM310.704 215V170.2H329.136C333.104 170.2 336.496 170.84 339.312 172.12C342.17 173.4 344.368 175.235 345.904 177.624C347.44 180.013 348.208 182.851 348.208 186.136C348.208 189.421 347.44 192.259 345.904 194.648C344.368 196.995 342.17 198.808 339.312 200.088C336.496 201.325 333.104 201.944 329.136 201.944H315.312L319.024 198.168V215H310.704ZM340.016 215L328.688 198.744H337.583L348.976 215H340.016ZM319.024 199.064L315.312 195.096H328.752C332.421 195.096 335.173 194.307 337.007 192.728C338.885 191.149 339.824 188.952 339.824 186.136C339.824 183.277 338.885 181.08 337.007 179.544C335.173 178.008 332.421 177.24 328.752 177.24H315.312L319.024 173.144V199.064Z" fill="white"/>
<path d="M359.308 215.448C357.857 215.448 356.62 214.957 355.596 213.976C354.572 212.952 354.06 211.672 354.06 210.136C354.06 208.515 354.572 207.235 355.596 206.296C356.62 205.315 357.857 204.824 359.308 204.824C360.759 204.824 361.996 205.315 363.02 206.296C364.044 207.235 364.556 208.515 364.556 210.136C364.556 211.672 364.044 212.952 363.02 213.976C361.996 214.957 360.759 215.448 359.308 215.448Z" fill="url(#paint1_linear_4003_6)"/>
<path d="M221.68 332L241.84 287.2H250.032L270.256 332H261.552L244.208 291.616H247.536L230.256 332H221.68ZM230.96 321.632L233.2 315.104H257.392L259.632 321.632H230.96ZM275.954 332V287.2H284.274V332H275.954Z" fill="white"/>
</g>
<defs>
<linearGradient id="paint0_linear_4003_6" x1="408" y1="46" x2="110" y2="448.5" gradientUnits="userSpaceOnUse">
<stop offset="0.121" stop-color="#BD00FF"/>
<stop offset="1" stop-color="#0057FF"/>
</linearGradient>
<linearGradient id="paint1_linear_4003_6" x1="256.5" y1="153" x2="256.5" y2="231" gradientUnits="userSpaceOnUse">
<stop stop-color="#0057FF"/>
<stop offset="1" stop-color="#DB00FE"/>
</linearGradient>
<clipPath id="clip0_4003_6">
<rect width="500" height="500" rx="250" fill="white"/>
</clipPath>
</defs>
</svg>
